<?xml version="1.0" encoding="utf-8" ?>
<svg xmlns="http://www.w3.org/2000/svg" xmlns:xlink="http://www.w3.org/1999/xlink" width="1440" height="500">
	<path fill="#1C1C1C" d="M0 0L1440 0L1440 500L0 500L0 0Z"/>
	<path fill="#4D4D4D" transform="matrix(0.978148 -0.207912 0.207912 0.978148 805 462.144)" d="M167.58745 16.851192L178.57919 14.400345L162.57919 17.400345L167.58745 16.851192ZM75.78447 60.084408L159.96815 20.300179L125.97038 23.651962L68.968163 63.300179L75.78447 60.084408ZM94.603256 399.69131L56.495541 290.69131L16.60326 313.94769L18.702803 316.25992L94.603256 399.69131ZM312.02359 424.80542L335.33719 388.85211L234.33719 438.85211L274.51245 431.58557L312.02359 424.80542ZM423.22549 257.71204L418.40005 270.70502L418.49875 287.26617L418.70273 321.76541L441.40005 208.76541L423.22549 257.71204ZM391.0983 139.94994L395.37274 160.18555L417.70975 265.94995L445.0983 194.38171L429.91663 179.07787L391.0983 139.94994ZM441.19312 188.33231L385.19312 71.332298L389.35709 135.57101L441.19312 188.33231ZM291.22791 22.742035L303.27628 31.26005L356.42532 52.864399L274.42532 10.8644L291.22791 22.742035ZM55.477951 286.72803L2.4779494 193.11063L15.194345 310.11063L55.477951 286.72803ZM342.78064 384.81891L339.57736 386.91232L332.35263 397.89081L318.53003 418.90228L402.53003 345.90228L342.78064 384.81891ZM381.992 66.29026L307.26639 35.520302L374.10568 117.59278L386.26639 132.52031L384.70978 108.40514L381.992 66.29026ZM175.95468 18.888723L298.95468 30.313568L259.15497 2.3135684L175.95468 18.888723ZM67.466713 91.689186L84.895813 128.19186L162.93756 22.191858L57.937561 71.736694L67.466713 91.689186ZM74.466995 112.10722L56.276688 74.511444L4.2914639 183.51144L83.291466 130.35518L74.466995 112.10722ZM2.7356396 187.79422L56.465797 284.02957L82.735641 133.02959L17.380438 177.76566L2.7356396 187.79422ZM189.83107 368.99792L58.831074 290.00943L98.153702 403.00943L121.68334 394.27386L189.83107 368.99792ZM192.8922 370.13724L101.67659 403.5636L222.67659 438.13724L192.8922 370.13724ZM241.74197 375.60983L195.74261 370.48035L225.41901 439.48035L333.74261 385.8591L241.74197 375.60983ZM371.47714 339.20773L343.22803 380.60327L415.22803 333.60291L414.87631 275.60327L371.47714 339.20773ZM316.71783 258.46176L395.96524 267.05402L414.71783 269.08423L387.79645 139.08421L316.71783 258.46176ZM316.07559 261.53922L339.68375 383.53922L414.07559 272.27103L316.07559 261.53922ZM271.06253 74.980209L245.68541 106.74445L358.84644 128.00639L385.68539 133.04788L303.77109 34.047882L271.06253 74.980209ZM164.84857 234.07797L85.398254 134.44073L58.848572 286.44073L65.534233 283.13239L164.84857 234.07797ZM312.6857 262.01685L195.81822 368.50943L201.64717 369.1572L336.81821 384.01685L312.6857 262.01685ZM171.10103 21.064682L243.01187 106.06468L301.10104 33.196594L171.10103 21.064682ZM165.89894 235.22552L59.372845 287.33884L191.37285 366.22552L165.89894 235.22552ZM170.01584 233.28191L312.01584 258.73438L243.1657 110.73438L170.01584 233.28191ZM310.81131 260.40643L216.84796 243.60802L168.81131 235.02518L194.3334 367.02518L278.34677 290.12747L310.81131 260.40643ZM240.31543 109.36961L87.31543 131.63745L167.23477 231.3696L240.31543 109.36961ZM240.28525 106.26587L168.26854 20.36945L88.285248 128.36945L240.28525 106.26587ZM387.93326 136.46909L322.12625 123.96791L245.93326 109.49133L315.1423 257.49133L350.392 198.88782L387.93326 136.46909ZM178.18059 433.96518L208.19588 437.7684L200.9592 435.71466L127.19588 414.7684L163.29366 428.35541L178.18059 433.96518ZM447.8949 195.10423L448 195.13313L419.23993 335.12372L419.12903 335.11407L418.77609 335.76929L418.82431 335.83673L313.90366 427.07294L313.83038 427.00549L313.28552 427.362L225.68709 442.99036L225.59933 442.72058L225.38429 442.64349L225.36693 442.66278L225.2975 443L178.32903 436.98761L178.03394 436.91052L98.251358 406.54019L98.342972 406.27042L98.339111 406.16443L98.056564 406.02954L97.759552 406.20297L13.871835 314.2634L13.951874 313.7431L13.543964 313.54074L-2.8421709e-13 188.74496L0.29701254 188.64861L0.38283756 188.28247L0.13982733 188.0705L0.11379051 188.06085L0.11668349 188.05122L0.11668349 188.05122L0.14368463 187.99341L33.13522 117.5019L33.13522 117.5019L33.142933 117.49227L55.387051 71.628464L55.421764 71.551384L55.422729 71.551384L55.426586 71.541748L55.444908 71.551384L55.820034 71.551384L55.944431 71.204514L55.853783 71.050354L125.97189 22.748831L126.48973 22.565762L126.48683 22.536856L259.91199 0L259.91489 0.019270504L260.6825 0.1830698L260.71527 0.12525828L385.2532 64.315308L385.2262 64.373123L385.64087 64.951233L385.82312 64.903061L447.89972 194.32378L447.75217 194.42012L447.8949 195.10423"/>
	<path fill="#838383" transform="translate(1027 99)" d="M13 6.5Q13 6.6595659 12.99217 6.8189397Q12.984342 6.9783139 12.968701 7.1371117Q12.95306 7.2959089 12.929646 7.4537482Q12.906233 7.6115866 12.875103 7.7680864Q12.843973 7.9245863 12.805202 8.0793705Q12.766432 8.2341547 12.720112 8.3868504Q12.673792 8.5395451 12.620036 8.6897831Q12.566278 8.8400211 12.505216 8.9874411Q12.444153 9.134861 12.37593 9.2791071Q12.307707 9.4233532 12.232489 9.5640783Q12.157269 9.7048025 12.075235 9.8416672Q11.993202 9.9785309 11.904552 10.111206Q11.815903 10.24388 11.720849 10.372046Q11.625795 10.50021 11.524569 10.623556Q11.42334 10.746902 11.316182 10.865132Q11.209023 10.983363 11.096193 11.096193Q10.983363 11.209023 10.865133 11.316182Q10.746902 11.42334 10.623556 11.524569Q10.50021 11.625795 10.372045 11.720848Q10.24388 11.815901 10.111206 11.904552Q9.9785309 11.993201 9.8416672 12.075235Q9.7048025 12.157269 9.5640783 12.232488Q9.4233532 12.307707 9.2791071 12.37593Q9.134861 12.444153 8.9874411 12.505216Q8.8400211 12.566278 8.6897831 12.620035Q8.5395451 12.673792 8.3868504 12.720112Q8.2341547 12.766432 8.0793705 12.805202Q7.9245863 12.843973 7.7680864 12.875103Q7.6115866 12.906233 7.4537477 12.929646Q7.2959089 12.95306 7.1371117 12.968701Q6.9783139 12.984341 6.8189402 12.99217Q6.6595659 13 6.5 13Q6.3404341 13 6.1810598 12.99217Q6.0216866 12.984341 5.8628888 12.968701Q5.7040911 12.95306 5.5462523 12.929646Q5.388413 12.906233 5.2319126 12.875103Q5.0754128 12.843973 4.9206285 12.805202Q4.7658443 12.766432 4.6131496 12.720112Q4.4604545 12.673792 4.310216 12.620036Q4.1599774 12.566278 4.0125575 12.505216Q3.8651376 12.444153 3.720892 12.37593Q3.5766459 12.307707 3.4359212 12.232489Q3.2951965 12.157269 3.1583319 12.075235Q3.0214677 11.993202 2.8887932 11.904552Q2.7561188 11.815903 2.6279542 11.720849Q2.4997897 11.625795 2.3764436 11.524569Q2.2530973 11.42334 2.1348667 11.316182Q2.0166361 11.209023 1.9038059 11.096193Q1.7909756 10.983363 1.6838176 10.865133Q1.5766594 10.746902 1.4754319 10.623556Q1.3742042 10.50021 1.2791508 10.372045Q1.1840975 10.24388 1.0954474 10.111206Q1.0067973 9.9785309 0.92476398 9.8416672Q0.84273064 9.7048025 0.76751179 9.5640783Q0.69229287 9.4233532 0.62406957 9.2791071Q0.55584627 9.134861 0.49478298 8.9874411Q0.43371972 8.8400211 0.37996355 8.6897831Q0.32620737 8.5395451 0.2798878 8.3868504Q0.23356822 8.2341547 0.19479683 8.0793705Q0.15602545 7.9245863 0.12489566 7.7680864Q0.093765877 7.6115866 0.070352674 7.4537477Q0.046939481 7.2959089 0.031299274 7.1371117Q0.015659068 6.9783139 0.0078295339 6.8189402Q0 6.6595659 0 6.5Q0 6.3404341 0.0078295339 6.1810598Q0.015659068 6.0216866 0.031299274 5.8628888Q0.046939481 5.7040911 0.070352674 5.5462523Q0.093765877 5.388413 0.12489566 5.2319126Q0.15602545 5.0754128 0.19479683 4.9206285Q0.23356822 4.7658443 0.2798878 4.6131496Q0.32620737 4.4604545 0.37996355 4.310216Q0.43371972 4.1599774 0.49478298 4.0125575Q0.55584627 3.8651376 0.62406957 3.720892Q0.69229281 3.5766459 0.76751173 3.4359212Q0.84273064 3.2951965 0.92476392 3.1583319Q1.0067973 3.0214677 1.0954474 2.8887932Q1.1840975 2.7561188 1.2791508 2.6279542Q1.3742042 2.4997897 1.4754319 2.3764436Q1.5766594 2.2530973 1.6838175 2.1348667Q1.7909756 2.0166361 1.9038059 1.9038059Q2.0166361 1.7909756 2.1348667 1.6838176Q2.2530971 1.5766594 2.3764434 1.4754319Q2.4997895 1.3742042 2.627954 1.2791508Q2.7561188 1.1840975 2.888793 1.0954474Q3.0214672 1.0067973 3.1583316 0.92476398Q3.2951961 0.84273064 3.435921 0.76751179Q3.5766454 0.69229287 3.7208915 0.62406957Q3.8651373 0.55584627 4.012557 0.49478298Q4.159977 0.43371972 4.3102155 0.37996355Q4.460454 0.32620737 4.6131492 0.2798878Q4.7658443 0.23356822 4.9206285 0.19479683Q5.0754128 0.15602545 5.2319126 0.12489566Q5.388413 0.093765877 5.5462523 0.070352674Q5.7040911 0.046939481 5.8628888 0.031299274Q6.0216866 0.015659068 6.1810598 0.0078295339Q6.3404341 0 6.5 0Q6.6595659 0 6.8189397 0.0078295339Q6.9783139 0.015659068 7.1371117 0.031299274Q7.2959089 0.046939481 7.4537482 0.070352674Q7.6115866 0.093765877 7.7680864 0.12489566Q7.9245863 0.15602545 8.0793705 0.19479683Q8.2341547 0.23356822 8.3868504 0.2798878Q8.5395451 0.32620737 8.6897831 0.37996355Q8.8400211 0.43371972 8.9874411 0.49478298Q9.134861 0.55584627 9.2791071 0.62406957Q9.4233532 0.69229281 9.5640783 0.76751173Q9.7048025 0.84273064 9.8416672 0.92476392Q9.9785309 1.0067973 10.111206 1.0954474Q10.24388 1.1840975 10.372046 1.2791508Q10.50021 1.3742042 10.623556 1.4754319Q10.746902 1.5766594 10.865132 1.6838175Q10.983363 1.7909756 11.096193 1.9038059Q11.209023 2.0166361 11.316182 2.1348667Q11.42334 2.2530971 11.524569 2.3764434Q11.625795 2.4997895 11.720848 2.627954Q11.815901 2.7561188 11.904552 2.888793Q11.993201 3.0214672 12.075235 3.1583316Q12.157269 3.2951961 12.232488 3.435921Q12.307707 3.5766454 12.37593 3.7208915Q12.444153 3.8651373 12.505216 4.012557Q12.566278 4.159977 12.620035 4.3102155Q12.673792 4.460454 12.720112 4.6131492Q12.766432 4.7658443 12.805202 4.9206285Q12.843973 5.0754128 12.875103 5.2319126Q12.906233 5.388413 12.929646 5.5462523Q12.95306 5.7040911 12.968701 5.8628888Q12.984342 6.0216866 12.99217 6.1810598Q13 6.3404341 13 6.5Z"/>
	<path fill="#838383" transform="translate(1018 171)" d="M15 7.5Q15 7.6841145 14.990965 7.8680077Q14.981932 8.0519009 14.963885 8.2351284Q14.945839 8.4183569 14.918823 8.6004791Q14.891808 8.7826004 14.855888 8.9631767Q14.819969 9.1437531 14.775232 9.3223505Q14.730497 9.500948 14.677052 9.6771345Q14.623606 9.8533211 14.561579 10.026672Q14.499552 10.200025 14.429094 10.370124Q14.358637 10.540224 14.279918 10.706662Q14.2012 10.8731 14.114408 11.035475Q14.027617 11.197849 13.932962 11.355769Q13.838308 11.513689 13.73602 11.666775Q13.633732 11.81986 13.524055 11.967743Q13.414378 12.115625 13.297578 12.257948Q13.180777 12.40027 13.057133 12.53669Q12.933489 12.67311 12.8033 12.803299Q12.673111 12.933487 12.536691 13.057131Q12.40027 13.180775 12.257948 13.297577Q12.115625 13.414377 11.967743 13.524055Q11.81986 13.633732 11.666775 13.73602Q11.513689 13.838308 11.355769 13.932962Q11.197849 14.027617 11.035475 14.114408Q10.8731 14.2012 10.706662 14.279919Q10.540224 14.358637 10.370125 14.429094Q10.200026 14.499552 10.026672 14.561578Q9.8533211 14.623605 9.6771345 14.677051Q9.500948 14.730496 9.3223505 14.775233Q9.1437531 14.819969 8.9631767 14.855888Q8.7826004 14.891808 8.6004791 14.918823Q8.4183578 14.945839 8.2351294 14.963885Q8.0519009 14.981932 7.8680077 14.990965Q7.6841145 15 7.5 15Q7.3158855 15 7.1319923 14.990965Q6.9480996 14.981932 6.7648716 14.963885Q6.5816431 14.945839 6.3995214 14.918823Q6.2173991 14.891808 6.0368223 14.855888Q5.856245 14.819969 5.6776485 14.775232Q5.4990516 14.730497 5.322865 14.677052Q5.146678 14.623606 4.9733257 14.561579Q4.7999735 14.499552 4.6298738 14.429094Q4.459774 14.358637 4.2933364 14.279918Q4.1268988 14.2012 3.964524 14.114408Q3.8021493 14.027617 3.6442289 13.932962Q3.4863086 13.838308 3.3332229 13.73602Q3.1801372 13.633732 3.0322549 13.524055Q2.8843727 13.414378 2.7420504 13.297578Q2.5997276 13.180777 2.4633076 13.057133Q2.3268876 12.933489 2.1966989 12.8033Q2.0665102 12.673111 1.9428663 12.536691Q1.8192225 12.40027 1.7024214 12.257948Q1.5856202 12.115625 1.4759431 11.967743Q1.3662663 11.81986 1.2639776 11.666775Q1.161689 11.513689 1.0670352 11.355769Q0.97238135 11.197849 0.88559043 11.035475Q0.7987994 10.8731 0.72008026 10.706662Q0.64136106 10.540224 0.57090342 10.370125Q0.50044578 10.200026 0.43841943 10.026672Q0.37639308 9.8533211 0.32294744 9.6771345Q0.26950178 9.500948 0.22476557 9.3223505Q0.18002935 9.1437531 0.14411037 8.9631767Q0.10819139 8.7826004 0.081176154 8.6004791Q0.054160934 8.4183578 0.036114544 8.2351294Q0.018068153 8.0519009 0.0090340767 7.8680077Q0 7.6841145 0 7.5Q0 7.3158855 0.0090340767 7.1319923Q0.018068153 6.9480996 0.036114544 6.7648716Q0.054160934 6.5816431 0.081176162 6.3995214Q0.10819139 6.2173991 0.14411037 6.0368223Q0.18002935 5.856245 0.22476555 5.6776485Q0.26950178 5.4990516 0.32294744 5.322865Q0.37639308 5.146678 0.43841943 4.9733257Q0.50044578 4.7999735 0.57090342 4.6298738Q0.64136106 4.459774 0.7200802 4.2933364Q0.7987994 4.1268988 0.88559043 3.964524Q0.97238147 3.8021493 1.0670353 3.6442289Q1.161689 3.4863086 1.2639778 3.3332229Q1.3662663 3.1801372 1.4759433 3.0322549Q1.5856203 2.8843727 1.7024214 2.7420504Q1.8192225 2.5997276 1.9428663 2.4633076Q2.0665102 2.3268876 2.1966989 2.1966989Q2.3268876 2.0665102 2.4633076 1.9428663Q2.5997276 1.8192225 2.7420502 1.7024214Q2.8843727 1.5856202 3.0322549 1.4759431Q3.1801372 1.3662663 3.3332229 1.2639776Q3.4863086 1.161689 3.6442289 1.0670352Q3.8021493 0.97238135 3.9645243 0.88559043Q4.1268988 0.7987994 4.2933364 0.72008026Q4.459774 0.64136106 4.6298738 0.57090342Q4.7999735 0.50044578 4.9733257 0.43841943Q5.146678 0.37639308 5.3228645 0.32294744Q5.4990511 0.26950178 5.6776485 0.22476557Q5.856245 0.18002935 6.0368223 0.14411037Q6.2173991 0.10819139 6.3995209 0.081176154Q6.5816431 0.054160934 6.7648716 0.036114544Q6.9480996 0.018068153 7.1319923 0.0090340767Q7.3158855 0 7.5 0Q7.6841145 0 7.8680077 0.0090340767Q8.0519009 0.018068153 8.2351284 0.036114544Q8.4183569 0.054160934 8.6004791 0.081176162Q8.7826004 0.10819139 8.9631767 0.14411037Q9.1437531 0.18002935 9.3223505 0.22476555Q9.500948 0.26950178 9.6771345 0.32294744Q9.8533211 0.37639308 10.026672 0.43841943Q10.200025 0.50044578 10.370124 0.57090342Q10.540224 0.64136106 10.706662 0.7200802Q10.8731 0.7987994 11.035475 0.88559043Q11.197849 0.97238147 11.355769 1.0670353Q11.513689 1.161689 11.666775 1.2639778Q11.81986 1.3662663 11.967743 1.4759433Q12.115625 1.5856203 12.257948 1.7024214Q12.40027 1.8192225 12.53669 1.9428663Q12.67311 2.0665102 12.803299 2.1966989Q12.933487 2.3268876 13.057131 2.4633076Q13.180775 2.5997276 13.297577 2.7420502Q13.414377 2.8843727 13.524055 3.0322549Q13.633732 3.1801372 13.73602 3.3332229Q13.838308 3.4863086 13.932962 3.6442289Q14.027617 3.8021493 14.114408 3.9645243Q14.2012 4.1268988 14.279919 4.2933364Q14.358637 4.459774 14.429094 4.6298738Q14.499552 4.7999735 14.561578 4.9733257Q14.623605 5.146678 14.677051 5.3228645Q14.730496 5.4990511 14.775233 5.6776485Q14.819969 5.856245 14.855888 6.0368223Q14.891808 6.2173991 14.918823 6.3995209Q14.945839 6.5816431 14.963885 6.7648716Q14.981932 6.9480996 14.990965 7.1319923Q15 7.3158855 15 7.5Z"/>
	<path fill="#838383" transform="translate(1212 145)" d="M8 4Q8 4.1965075 7.9807391 4.3920684Q7.9614778 4.5876293 7.9231405 4.7803607Q7.8848038 4.9730926 7.8277607 5.1611385Q7.7707176 5.349184 7.6955171 5.5307331Q7.6203175 5.7122822 7.5276842 5.8855863Q7.4350514 6.0588903 7.3258772 6.2222795Q7.2167044 6.3856702 7.092041 6.5375729Q6.9673786 6.6894751 6.8284264 6.8284264Q6.6894751 6.9673786 6.5375729 7.092041Q6.3856702 7.2167044 6.2222795 7.3258772Q6.0588903 7.4350514 5.8855867 7.5276847Q5.7122822 7.6203175 5.5307331 7.6955175Q5.349184 7.7707181 5.1611385 7.8277612Q4.9730926 7.8848042 4.7803607 7.9231405Q4.5876293 7.9614778 4.3920689 7.9807391Q4.1965075 8 4 8Q3.8034928 8 3.6079316 7.9807391Q3.4123702 7.9614778 3.2196386 7.9231405Q3.026907 7.8848038 2.8388612 7.8277607Q2.6508152 7.7707176 2.4692659 7.6955171Q2.2877169 7.6203175 2.1144128 7.5276842Q1.9411089 7.4350514 1.7777189 7.3258772Q1.6143291 7.2167044 1.4624269 7.092041Q1.3105247 6.9673786 1.1715728 6.8284264Q1.0326211 6.6894751 0.90795821 6.5375729Q0.78329521 6.3856702 0.6741215 6.2222795Q0.56494784 6.0588903 0.47231492 5.8855867Q0.37968194 5.7122822 0.30448183 5.5307331Q0.22928172 5.349184 0.17223865 5.1611385Q0.11519556 4.9730926 0.076858871 4.7803607Q0.038522184 4.5876293 0.019261092 4.3920689Q0 4.1965075 0 4Q0 3.8034928 0.019261092 3.6079316Q0.038522184 3.4123702 0.076858871 3.2196386Q0.11519556 3.026907 0.17223865 2.8388612Q0.22928172 2.6508152 0.30448183 2.4692659Q0.37968194 2.2877169 0.47231489 2.1144128Q0.56494784 1.9411089 0.6741215 1.7777189Q0.78329521 1.6143291 0.90795815 1.4624269Q1.0326211 1.3105247 1.1715728 1.1715728Q1.3105247 1.0326211 1.4624269 0.90795821Q1.6143292 0.78329521 1.777719 0.6741215Q1.9411089 0.56494784 2.1144128 0.47231492Q2.2877169 0.37968194 2.4692659 0.30448183Q2.6508152 0.22928172 2.8388612 0.17223865Q3.026907 0.11519556 3.2196386 0.076858871Q3.4123702 0.038522184 3.6079316 0.019261092Q3.8034928 0 4 0Q4.1965075 0 4.3920684 0.019261092Q4.5876293 0.038522184 4.7803607 0.076858871Q4.9730926 0.11519556 5.1611385 0.17223865Q5.349184 0.22928172 5.5307331 0.30448183Q5.7122822 0.37968194 5.8855863 0.47231489Q6.0588903 0.56494784 6.2222795 0.6741215Q6.3856702 0.78329521 6.5375729 0.90795815Q6.6894751 1.0326211 6.8284264 1.1715728Q6.9673786 1.3105247 7.092041 1.4624269Q7.2167044 1.6143292 7.3258772 1.777719Q7.4350514 1.9411089 7.5276847 2.1144128Q7.6203175 2.2877169 7.6955175 2.4692659Q7.7707181 2.6508152 7.8277612 2.8388612Q7.8848042 3.026907 7.9231405 3.2196386Q7.9614778 3.4123702 7.9807391 3.6079316Q8 3.8034928 8 4Z"/>
	<path fill="#838383" transform="translate(1073 186)" d="M6 3Q6 3.1473808 5.9855542 3.2940516Q5.9711084 3.4407225 5.9423552 3.5852709Q5.9136028 3.7298198 5.870821 3.8708541Q5.8280382 4.0118885 5.7716379 4.1480498Q5.7152381 4.2842121 5.6457634 4.4141903Q5.5762887 4.5441685 5.4944081 4.6667104Q5.412528 4.7892532 5.3190312 4.9031796Q5.2255344 5.0171061 5.1213202 5.1213198Q5.017107 5.225534 4.9031806 5.3190312Q4.7892537 5.412528 4.6667109 5.4944081Q4.5441685 5.5762887 4.4141908 5.6457634Q4.2842121 5.7152381 4.1480503 5.7716379Q4.0118885 5.8280382 3.8708544 5.870821Q3.7298198 5.9136028 3.5852709 5.9423552Q3.4407225 5.9711084 3.2940516 5.9855542Q3.1473808 6 3 6Q2.8526194 6 2.7059484 5.9855542Q2.5592775 5.9711084 2.4147286 5.9423552Q2.2701802 5.9136028 2.1291459 5.870821Q1.9881115 5.8280382 1.8519496 5.7716379Q1.7157879 5.7152381 1.5858097 5.6457634Q1.4558318 5.5762887 1.3332891 5.4944081Q1.2107468 5.412528 1.0968201 5.3190312Q0.98289347 5.2255344 0.87867963 5.1213202Q0.77446592 5.017107 0.68096864 4.9031806Q0.58747137 4.7892537 0.50559109 4.6667109Q0.42371088 4.5441685 0.35423619 4.4141908Q0.28476149 4.2842121 0.22836138 4.1480503Q0.17196131 4.0118885 0.12917899 3.8708544Q0.086396672 3.7298198 0.057644151 3.5852709Q0.028891638 3.4407225 0.014445819 3.2940516Q0 3.1473808 0 3Q0 2.8526194 0.014445819 2.7059484Q0.028891638 2.5592775 0.057644151 2.4147286Q0.086396672 2.2701802 0.12917899 2.1291459Q0.17196131 1.9881115 0.22836138 1.8519496Q0.28476149 1.7157879 0.35423622 1.5858097Q0.42371094 1.4558318 0.50559115 1.3332891Q0.58747143 1.2107468 0.68096864 1.0968201Q0.77446592 0.98289347 0.87867963 0.87867963Q0.98289347 0.77446592 1.0968201 0.68096864Q1.2107468 0.58747137 1.3332891 0.50559109Q1.4558318 0.42371088 1.5858099 0.35423619Q1.7157879 0.28476149 1.8519496 0.22836138Q1.9881115 0.17196131 2.1291459 0.12917899Q2.2701802 0.086396672 2.4147289 0.057644151Q2.5592775 0.028891638 2.7059484 0.014445819Q2.8526194 0 3 0Q3.1473808 0 3.2940516 0.014445819Q3.4407225 0.028891638 3.5852709 0.057644151Q3.7298198 0.086396672 3.8708541 0.12917899Q4.0118885 0.17196131 4.1480498 0.22836138Q4.2842121 0.28476149 4.4141903 0.35423622Q4.5441685 0.42371094 4.6667104 0.50559115Q4.7892532 0.58747143 4.9031796 0.68096864Q5.0171061 0.77446592 5.1213198 0.87867963Q5.225534 0.98289347 5.3190312 1.0968201Q5.412528 1.2107468 5.4944081 1.3332891Q5.5762887 1.4558318 5.6457634 1.5858099Q5.7152381 1.7157879 5.7716379 1.8519496Q5.8280382 1.9881115 5.870821 2.1291459Q5.9136028 2.2701802 5.9423552 2.4147289Q5.9711084 2.5592775 5.9855542 2.7059484Q6 2.8526194 6 3Z"/>
	<path fill="#838383" transform="translate(1111 293)" d="M6 3Q6 3.1473808 5.9855542 3.2940516Q5.9711084 3.4407225 5.9423552 3.5852709Q5.9136028 3.7298198 5.870821 3.8708541Q5.8280382 4.0118885 5.7716379 4.1480498Q5.7152381 4.2842121 5.6457634 4.4141903Q5.5762887 4.5441685 5.4944081 4.6667104Q5.412528 4.7892532 5.3190312 4.9031796Q5.2255344 5.0171061 5.1213202 5.1213198Q5.017107 5.225534 4.9031806 5.3190312Q4.7892537 5.412528 4.6667109 5.4944081Q4.5441685 5.5762887 4.4141908 5.6457634Q4.2842121 5.7152381 4.1480503 5.7716379Q4.0118885 5.8280382 3.8708544 5.870821Q3.7298198 5.9136028 3.5852709 5.9423552Q3.4407225 5.9711084 3.2940516 5.9855542Q3.1473808 6 3 6Q2.8526194 6 2.7059484 5.9855542Q2.5592775 5.9711084 2.4147286 5.9423552Q2.2701802 5.9136028 2.1291459 5.870821Q1.9881115 5.8280382 1.8519496 5.7716379Q1.7157879 5.7152381 1.5858097 5.6457634Q1.4558318 5.5762887 1.3332891 5.4944081Q1.2107468 5.412528 1.0968201 5.3190312Q0.98289347 5.2255344 0.87867963 5.1213202Q0.77446592 5.017107 0.68096864 4.9031806Q0.58747137 4.7892537 0.50559109 4.6667109Q0.42371088 4.5441685 0.35423619 4.4141908Q0.28476149 4.2842121 0.22836138 4.1480503Q0.17196131 4.0118885 0.12917899 3.8708544Q0.086396672 3.7298198 0.057644151 3.5852709Q0.028891638 3.4407225 0.014445819 3.2940516Q0 3.1473808 0 3Q0 2.8526194 0.014445819 2.7059484Q0.028891638 2.5592775 0.057644151 2.4147286Q0.086396672 2.2701802 0.12917899 2.1291459Q0.17196131 1.9881115 0.22836138 1.8519496Q0.28476149 1.7157879 0.35423622 1.5858097Q0.42371094 1.4558318 0.50559115 1.3332891Q0.58747143 1.2107468 0.68096864 1.0968201Q0.77446592 0.98289347 0.87867963 0.87867963Q0.98289347 0.77446592 1.0968201 0.68096864Q1.2107468 0.58747137 1.3332891 0.50559109Q1.4558318 0.42371088 1.5858099 0.35423619Q1.7157879 0.28476149 1.8519496 0.22836138Q1.9881115 0.17196131 2.1291459 0.12917899Q2.2701802 0.086396672 2.4147289 0.057644151Q2.5592775 0.028891638 2.7059484 0.014445819Q2.8526194 0 3 0Q3.1473808 0 3.2940516 0.014445819Q3.4407225 0.028891638 3.5852709 0.057644151Q3.7298198 0.086396672 3.8708541 0.12917899Q4.0118885 0.17196131 4.1480498 0.22836138Q4.2842121 0.28476149 4.4141903 0.35423622Q4.5441685 0.42371094 4.6667104 0.50559115Q4.7892532 0.58747143 4.9031796 0.68096864Q5.0171061 0.77446592 5.1213198 0.87867963Q5.225534 0.98289347 5.3190312 1.0968201Q5.412528 1.2107468 5.4944081 1.3332891Q5.5762887 1.4558318 5.6457634 1.5858099Q5.7152381 1.7157879 5.7716379 1.8519496Q5.8280382 1.9881115 5.870821 2.1291459Q5.9136028 2.2701802 5.9423552 2.4147289Q5.9711084 2.5592775 5.9855542 2.7059484Q6 2.8526194 6 3Z"/>
	<path fill="#838383" transform="translate(1139 343)" d="M3 1.5Q3 1.5736904 2.9927771 1.6470258Q2.9855542 1.7203612 2.9711776 1.7926354Q2.9568014 1.8649099 2.9354105 1.9354271Q2.9140191 2.0059443 2.885819 2.0740249Q2.857619 2.1421061 2.8228817 2.2070951Q2.7881444 2.2720842 2.7472041 2.3333552Q2.706264 2.3946266 2.6595156 2.4515898Q2.6127672 2.508553 2.5606601 2.5606599Q2.5085535 2.612767 2.4515903 2.6595156Q2.3946269 2.706264 2.3333554 2.7472041Q2.2720842 2.7881444 2.2070954 2.8228817Q2.1421061 2.857619 2.0740252 2.885819Q2.0059443 2.9140191 1.9354272 2.9354105Q1.8649099 2.9568014 1.7926354 2.9711776Q1.7203612 2.9855542 1.6470258 2.9927771Q1.5736904 3 1.5 3Q1.4263097 3 1.3529742 2.9927771Q1.2796388 2.9855542 1.2073643 2.9711776Q1.1350901 2.9568014 1.0645729 2.9354105Q0.99405575 2.9140191 0.92597479 2.885819Q0.85789394 2.857619 0.79290485 2.8228817Q0.72791588 2.7881444 0.66664457 2.7472041Q0.60537338 2.706264 0.54841006 2.6595156Q0.49144673 2.6127672 0.43933982 2.5606601Q0.38723296 2.5085535 0.34048432 2.4515903Q0.29373568 2.3946269 0.25279555 2.3333554Q0.21185544 2.2720842 0.17711809 2.2070954Q0.14238074 2.1421061 0.11418069 2.0740252Q0.085980654 2.0059443 0.064589493 1.9354272Q0.043198336 1.8649099 0.028822076 1.7926354Q0.014445819 1.7203612 0.0072229095 1.6470258Q0 1.5736904 0 1.5Q0 1.4263097 0.0072229095 1.3529742Q0.014445819 1.2796388 0.028822076 1.2073643Q0.043198336 1.1350901 0.064589493 1.0645729Q0.085980654 0.99405575 0.11418069 0.92597479Q0.14238074 0.85789394 0.17711811 0.79290485Q0.21185547 0.72791588 0.25279558 0.66664457Q0.29373571 0.60537338 0.34048432 0.54841006Q0.38723296 0.49144673 0.43933982 0.43933982Q0.49144673 0.38723296 0.54841006 0.34048432Q0.60537338 0.29373568 0.66664457 0.25279555Q0.72791588 0.21185544 0.79290497 0.17711809Q0.85789394 0.14238074 0.92597479 0.11418069Q0.99405575 0.085980654 1.0645729 0.064589493Q1.1350901 0.043198336 1.2073644 0.028822076Q1.2796388 0.014445819 1.3529742 0.0072229095Q1.4263097 0 1.5 0Q1.5736904 0 1.6470258 0.0072229095Q1.7203612 0.014445819 1.7926354 0.028822076Q1.8649099 0.043198336 1.9354271 0.064589493Q2.0059443 0.085980654 2.0740249 0.11418069Q2.1421061 0.14238074 2.2070951 0.17711811Q2.2720842 0.21185547 2.3333552 0.25279558Q2.3946266 0.29373571 2.4515898 0.34048432Q2.508553 0.38723296 2.5606599 0.43933982Q2.612767 0.49144673 2.6595156 0.54841006Q2.706264 0.60537338 2.7472041 0.66664457Q2.7881444 0.72791588 2.8228817 0.79290497Q2.857619 0.85789394 2.885819 0.92597479Q2.9140191 0.99405575 2.9354105 1.0645729Q2.9568014 1.1350901 2.9711776 1.2073644Q2.9855542 1.2796388 2.9927771 1.3529742Q3 1.4263097 3 1.5Z"/>
	<path fill="#838383" transform="translate(723 450)" d="M3 1.5Q3 1.5736904 2.9927771 1.6470258Q2.9855542 1.7203612 2.9711776 1.7926354Q2.9568014 1.8649099 2.9354105 1.9354271Q2.9140191 2.0059443 2.885819 2.0740249Q2.857619 2.1421061 2.8228817 2.2070951Q2.7881444 2.2720842 2.7472041 2.3333552Q2.706264 2.3946266 2.6595156 2.4515898Q2.6127672 2.508553 2.5606601 2.5606599Q2.5085535 2.612767 2.4515903 2.6595156Q2.3946269 2.706264 2.3333554 2.7472041Q2.2720842 2.7881444 2.2070954 2.8228817Q2.1421061 2.857619 2.0740252 2.885819Q2.0059443 2.9140191 1.9354272 2.9354105Q1.8649099 2.9568014 1.7926354 2.9711776Q1.7203612 2.9855542 1.6470258 2.9927771Q1.5736904 3 1.5 3Q1.4263097 3 1.3529742 2.9927771Q1.2796388 2.9855542 1.2073643 2.9711776Q1.1350901 2.9568014 1.0645729 2.9354105Q0.99405575 2.9140191 0.92597479 2.885819Q0.85789394 2.857619 0.79290485 2.8228817Q0.72791588 2.7881444 0.66664457 2.7472041Q0.60537338 2.706264 0.54841006 2.6595156Q0.49144673 2.6127672 0.43933982 2.5606601Q0.38723296 2.5085535 0.34048432 2.4515903Q0.29373568 2.3946269 0.25279555 2.3333554Q0.21185544 2.2720842 0.17711809 2.2070954Q0.14238074 2.1421061 0.11418069 2.0740252Q0.085980654 2.0059443 0.064589493 1.9354272Q0.043198336 1.8649099 0.028822076 1.7926354Q0.014445819 1.7203612 0.0072229095 1.6470258Q0 1.5736904 0 1.5Q0 1.4263097 0.0072229095 1.3529742Q0.014445819 1.2796388 0.028822076 1.2073643Q0.043198336 1.1350901 0.064589493 1.0645729Q0.085980654 0.99405575 0.11418069 0.92597479Q0.14238074 0.85789394 0.17711811 0.79290485Q0.21185547 0.72791588 0.25279558 0.66664457Q0.29373571 0.60537338 0.34048432 0.54841006Q0.38723296 0.49144673 0.43933982 0.43933982Q0.49144673 0.38723296 0.54841006 0.34048432Q0.60537338 0.29373568 0.66664457 0.25279555Q0.72791588 0.21185544 0.79290497 0.17711809Q0.85789394 0.14238074 0.92597479 0.11418069Q0.99405575 0.085980654 1.0645729 0.064589493Q1.1350901 0.043198336 1.2073644 0.028822076Q1.2796388 0.014445819 1.3529742 0.0072229095Q1.4263097 0 1.5 0Q1.5736904 0 1.6470258 0.0072229095Q1.7203612 0.014445819 1.7926354 0.028822076Q1.8649099 0.043198336 1.9354271 0.064589493Q2.0059443 0.085980654 2.0740249 0.11418069Q2.1421061 0.14238074 2.2070951 0.17711811Q2.2720842 0.21185547 2.3333552 0.25279558Q2.3946266 0.29373571 2.4515898 0.34048432Q2.508553 0.38723296 2.5606599 0.43933982Q2.612767 0.49144673 2.6595156 0.54841006Q2.706264 0.60537338 2.7472041 0.66664457Q2.7881444 0.72791588 2.8228817 0.79290497Q2.857619 0.85789394 2.885819 0.92597479Q2.9140191 0.99405575 2.9354105 1.0645729Q2.9568014 1.1350901 2.9711776 1.2073644Q2.9855542 1.2796388 2.9927771 1.3529742Q3 1.4263097 3 1.5Z"/>
	<path fill="#838383" transform="translate(1182 387)" d="M3 1.5Q3 1.5736904 2.9927771 1.6470258Q2.9855542 1.7203612 2.9711776 1.7926354Q2.9568014 1.8649099 2.9354105 1.9354271Q2.9140191 2.0059443 2.885819 2.0740249Q2.857619 2.1421061 2.8228817 2.2070951Q2.7881444 2.2720842 2.7472041 2.3333552Q2.706264 2.3946266 2.6595156 2.4515898Q2.6127672 2.508553 2.5606601 2.5606599Q2.5085535 2.612767 2.4515903 2.6595156Q2.3946269 2.706264 2.3333554 2.7472041Q2.2720842 2.7881444 2.2070954 2.8228817Q2.1421061 2.857619 2.0740252 2.885819Q2.0059443 2.9140191 1.9354272 2.9354105Q1.8649099 2.9568014 1.7926354 2.9711776Q1.7203612 2.9855542 1.6470258 2.9927771Q1.5736904 3 1.5 3Q1.4263097 3 1.3529742 2.9927771Q1.2796388 2.9855542 1.2073643 2.9711776Q1.1350901 2.9568014 1.0645729 2.9354105Q0.99405575 2.9140191 0.92597479 2.885819Q0.85789394 2.857619 0.79290485 2.8228817Q0.72791588 2.7881444 0.66664457 2.7472041Q0.60537338 2.706264 0.54841006 2.6595156Q0.49144673 2.6127672 0.43933982 2.5606601Q0.38723296 2.5085535 0.34048432 2.4515903Q0.29373568 2.3946269 0.25279555 2.3333554Q0.21185544 2.2720842 0.17711809 2.2070954Q0.14238074 2.1421061 0.11418069 2.0740252Q0.085980654 2.0059443 0.064589493 1.9354272Q0.043198336 1.8649099 0.028822076 1.7926354Q0.014445819 1.7203612 0.0072229095 1.6470258Q0 1.5736904 0 1.5Q0 1.4263097 0.0072229095 1.3529742Q0.014445819 1.2796388 0.028822076 1.2073643Q0.043198336 1.1350901 0.064589493 1.0645729Q0.085980654 0.99405575 0.11418069 0.92597479Q0.14238074 0.85789394 0.17711811 0.79290485Q0.21185547 0.72791588 0.25279558 0.66664457Q0.29373571 0.60537338 0.34048432 0.54841006Q0.38723296 0.49144673 0.43933982 0.43933982Q0.49144673 0.38723296 0.54841006 0.34048432Q0.60537338 0.29373568 0.66664457 0.25279555Q0.72791588 0.21185544 0.79290497 0.17711809Q0.85789394 0.14238074 0.92597479 0.11418069Q0.99405575 0.085980654 1.0645729 0.064589493Q1.1350901 0.043198336 1.2073644 0.028822076Q1.2796388 0.014445819 1.3529742 0.0072229095Q1.4263097 0 1.5 0Q1.5736904 0 1.6470258 0.0072229095Q1.7203612 0.014445819 1.7926354 0.028822076Q1.8649099 0.043198336 1.9354271 0.064589493Q2.0059443 0.085980654 2.0740249 0.11418069Q2.1421061 0.14238074 2.2070951 0.17711811Q2.2720842 0.21185547 2.3333552 0.25279558Q2.3946266 0.29373571 2.4515898 0.34048432Q2.508553 0.38723296 2.5606599 0.43933982Q2.612767 0.49144673 2.6595156 0.54841006Q2.706264 0.60537338 2.7472041 0.66664457Q2.7881444 0.72791588 2.8228817 0.79290497Q2.857619 0.85789394 2.885819 0.92597479Q2.9140191 0.99405575 2.9354105 1.0645729Q2.9568014 1.1350901 2.9711776 1.2073644Q2.9855542 1.2796388 2.9927771 1.3529742Q3 1.4263097 3 1.5Z"/>
	<path fill="#838383" transform="translate(836 195)" d="M13 6.5Q13 6.6595659 12.99217 6.8189397Q12.984342 6.9783139 12.968701 7.1371117Q12.95306 7.2959089 12.929646 7.4537482Q12.906233 7.6115866 12.875103 7.7680864Q12.843973 7.9245863 12.805202 8.0793705Q12.766432 8.2341547 12.720112 8.3868504Q12.673792 8.5395451 12.620036 8.6897831Q12.566278 8.8400211 12.505216 8.9874411Q12.444153 9.134861 12.37593 9.2791071Q12.307707 9.4233532 12.232489 9.5640783Q12.157269 9.7048025 12.075235 9.8416672Q11.993202 9.9785309 11.904552 10.111206Q11.815903 10.24388 11.720849 10.372046Q11.625795 10.50021 11.524569 10.623556Q11.42334 10.746902 11.316182 10.865132Q11.209023 10.983363 11.096193 11.096193Q10.983363 11.209023 10.865133 11.316182Q10.746902 11.42334 10.623556 11.524569Q10.50021 11.625795 10.372045 11.720848Q10.24388 11.815901 10.111206 11.904552Q9.9785309 11.993201 9.8416672 12.075235Q9.7048025 12.157269 9.5640783 12.232488Q9.4233532 12.307707 9.2791071 12.37593Q9.134861 12.444153 8.9874411 12.505216Q8.8400211 12.566278 8.6897831 12.620035Q8.5395451 12.673792 8.3868504 12.720112Q8.2341547 12.766432 8.0793705 12.805202Q7.9245863 12.843973 7.7680864 12.875103Q7.6115866 12.906233 7.4537477 12.929646Q7.2959089 12.95306 7.1371117 12.968701Q6.9783139 12.984341 6.8189402 12.99217Q6.6595659 13 6.5 13Q6.3404341 13 6.1810598 12.99217Q6.0216866 12.984341 5.8628888 12.968701Q5.7040911 12.95306 5.5462523 12.929646Q5.388413 12.906233 5.2319126 12.875103Q5.0754128 12.843973 4.9206285 12.805202Q4.7658443 12.766432 4.6131496 12.720112Q4.4604545 12.673792 4.310216 12.620036Q4.1599774 12.566278 4.0125575 12.505216Q3.8651376 12.444153 3.720892 12.37593Q3.5766459 12.307707 3.4359212 12.232489Q3.2951965 12.157269 3.1583319 12.075235Q3.0214677 11.993202 2.8887932 11.904552Q2.7561188 11.815903 2.6279542 11.720849Q2.4997897 11.625795 2.3764436 11.524569Q2.2530973 11.42334 2.1348667 11.316182Q2.0166361 11.209023 1.9038059 11.096193Q1.7909756 10.983363 1.6838176 10.865133Q1.5766594 10.746902 1.4754319 10.623556Q1.3742042 10.50021 1.2791508 10.372045Q1.1840975 10.24388 1.0954474 10.111206Q1.0067973 9.9785309 0.92476398 9.8416672Q0.84273064 9.7048025 0.76751179 9.5640783Q0.69229287 9.4233532 0.62406957 9.2791071Q0.55584627 9.134861 0.49478298 8.9874411Q0.43371972 8.8400211 0.37996355 8.6897831Q0.32620737 8.5395451 0.2798878 8.3868504Q0.23356822 8.2341547 0.19479683 8.0793705Q0.15602545 7.9245863 0.12489566 7.7680864Q0.093765877 7.6115866 0.070352674 7.4537477Q0.046939481 7.2959089 0.031299274 7.1371117Q0.015659068 6.9783139 0.0078295339 6.8189402Q0 6.6595659 0 6.5Q0 6.3404341 0.0078295339 6.1810598Q0.015659068 6.0216866 0.031299274 5.8628888Q0.046939481 5.7040911 0.070352674 5.5462523Q0.093765877 5.388413 0.12489566 5.2319126Q0.15602545 5.0754128 0.19479683 4.9206285Q0.23356822 4.7658443 0.2798878 4.6131496Q0.32620737 4.4604545 0.37996355 4.310216Q0.43371972 4.1599774 0.49478298 4.0125575Q0.55584627 3.8651376 0.62406957 3.720892Q0.69229281 3.5766459 0.76751173 3.4359212Q0.84273064 3.2951965 0.92476392 3.1583319Q1.0067973 3.0214677 1.0954474 2.8887932Q1.1840975 2.7561188 1.2791508 2.6279542Q1.3742042 2.4997897 1.4754319 2.3764436Q1.5766594 2.2530973 1.6838175 2.1348667Q1.7909756 2.0166361 1.9038059 1.9038059Q2.0166361 1.7909756 2.1348667 1.6838176Q2.2530971 1.5766594 2.3764434 1.4754319Q2.4997895 1.3742042 2.627954 1.2791508Q2.7561188 1.1840975 2.888793 1.0954474Q3.0214672 1.0067973 3.1583316 0.92476398Q3.2951961 0.84273064 3.435921 0.76751179Q3.5766454 0.69229287 3.7208915 0.62406957Q3.8651373 0.55584627 4.012557 0.49478298Q4.159977 0.43371972 4.3102155 0.37996355Q4.460454 0.32620737 4.6131492 0.2798878Q4.7658443 0.23356822 4.9206285 0.19479683Q5.0754128 0.15602545 5.2319126 0.12489566Q5.388413 0.093765877 5.5462523 0.070352674Q5.7040911 0.046939481 5.8628888 0.031299274Q6.0216866 0.015659068 6.1810598 0.0078295339Q6.3404341 0 6.5 0Q6.6595659 0 6.8189397 0.0078295339Q6.9783139 0.015659068 7.1371117 0.031299274Q7.2959089 0.046939481 7.4537482 0.070352674Q7.6115866 0.093765877 7.7680864 0.12489566Q7.9245863 0.15602545 8.0793705 0.19479683Q8.2341547 0.23356822 8.3868504 0.2798878Q8.5395451 0.32620737 8.6897831 0.37996355Q8.8400211 0.43371972 8.9874411 0.49478298Q9.134861 0.55584627 9.2791071 0.62406957Q9.4233532 0.69229281 9.5640783 0.76751173Q9.7048025 0.84273064 9.8416672 0.92476392Q9.9785309 1.0067973 10.111206 1.0954474Q10.24388 1.1840975 10.372046 1.2791508Q10.50021 1.3742042 10.623556 1.4754319Q10.746902 1.5766594 10.865132 1.6838175Q10.983363 1.7909756 11.096193 1.9038059Q11.209023 2.0166361 11.316182 2.1348667Q11.42334 2.2530971 11.524569 2.3764434Q11.625795 2.4997895 11.720848 2.627954Q11.815901 2.7561188 11.904552 2.888793Q11.993201 3.0214672 12.075235 3.1583316Q12.157269 3.2951961 12.232488 3.435921Q12.307707 3.5766454 12.37593 3.7208915Q12.444153 3.8651373 12.505216 4.012557Q12.566278 4.159977 12.620035 4.3102155Q12.673792 4.460454 12.720112 4.6131492Q12.766432 4.7658443 12.805202 4.9206285Q12.843973 5.0754128 12.875103 5.2319126Q12.906233 5.388413 12.929646 5.5462523Q12.95306 5.7040911 12.968701 5.8628888Q12.984342 6.0216866 12.99217 6.1810598Q13 6.3404341 13 6.5Z"/>
	<path fill="#838383" transform="translate(1050 333)" d="M13 6.5Q13 6.6595659 12.99217 6.8189397Q12.984342 6.9783139 12.968701 7.1371117Q12.95306 7.2959089 12.929646 7.4537482Q12.906233 7.6115866 12.875103 7.7680864Q12.843973 7.9245863 12.805202 8.0793705Q12.766432 8.2341547 12.720112 8.3868504Q12.673792 8.5395451 12.620036 8.6897831Q12.566278 8.8400211 12.505216 8.9874411Q12.444153 9.134861 12.37593 9.2791071Q12.307707 9.4233532 12.232489 9.5640783Q12.157269 9.7048025 12.075235 9.8416672Q11.993202 9.9785309 11.904552 10.111206Q11.815903 10.24388 11.720849 10.372046Q11.625795 10.50021 11.524569 10.623556Q11.42334 10.746902 11.316182 10.865132Q11.209023 10.983363 11.096193 11.096193Q10.983363 11.209023 10.865133 11.316182Q10.746902 11.42334 10.623556 11.524569Q10.50021 11.625795 10.372045 11.720848Q10.24388 11.815901 10.111206 11.904552Q9.9785309 11.993201 9.8416672 12.075235Q9.7048025 12.157269 9.5640783 12.232488Q9.4233532 12.307707 9.2791071 12.37593Q9.134861 12.444153 8.9874411 12.505216Q8.8400211 12.566278 8.6897831 12.620035Q8.5395451 12.673792 8.3868504 12.720112Q8.2341547 12.766432 8.0793705 12.805202Q7.9245863 12.843973 7.7680864 12.875103Q7.6115866 12.906233 7.4537477 12.929646Q7.2959089 12.95306 7.1371117 12.968701Q6.9783139 12.984341 6.8189402 12.99217Q6.6595659 13 6.5 13Q6.3404341 13 6.1810598 12.99217Q6.0216866 12.984341 5.8628888 12.968701Q5.7040911 12.95306 5.5462523 12.929646Q5.388413 12.906233 5.2319126 12.875103Q5.0754128 12.843973 4.9206285 12.805202Q4.7658443 12.766432 4.6131496 12.720112Q4.4604545 12.673792 4.310216 12.620036Q4.1599774 12.566278 4.0125575 12.505216Q3.8651376 12.444153 3.720892 12.37593Q3.5766459 12.307707 3.4359212 12.232489Q3.2951965 12.157269 3.1583319 12.075235Q3.0214677 11.993202 2.8887932 11.904552Q2.7561188 11.815903 2.6279542 11.720849Q2.4997897 11.625795 2.3764436 11.524569Q2.2530973 11.42334 2.1348667 11.316182Q2.0166361 11.209023 1.9038059 11.096193Q1.7909756 10.983363 1.6838176 10.865133Q1.5766594 10.746902 1.4754319 10.623556Q1.3742042 10.50021 1.2791508 10.372045Q1.1840975 10.24388 1.0954474 10.111206Q1.0067973 9.9785309 0.92476398 9.8416672Q0.84273064 9.7048025 0.76751179 9.5640783Q0.69229287 9.4233532 0.62406957 9.2791071Q0.55584627 9.134861 0.49478298 8.9874411Q0.43371972 8.8400211 0.37996355 8.6897831Q0.32620737 8.5395451 0.2798878 8.3868504Q0.23356822 8.2341547 0.19479683 8.0793705Q0.15602545 7.9245863 0.12489566 7.7680864Q0.093765877 7.6115866 0.070352674 7.4537477Q0.046939481 7.2959089 0.031299274 7.1371117Q0.015659068 6.9783139 0.0078295339 6.8189402Q0 6.6595659 0 6.5Q0 6.3404341 0.0078295339 6.1810598Q0.015659068 6.0216866 0.031299274 5.8628888Q0.046939481 5.7040911 0.070352674 5.5462523Q0.093765877 5.388413 0.12489566 5.2319126Q0.15602545 5.0754128 0.19479683 4.9206285Q0.23356822 4.7658443 0.2798878 4.6131496Q0.32620737 4.4604545 0.37996355 4.310216Q0.43371972 4.1599774 0.49478298 4.0125575Q0.55584627 3.8651376 0.62406957 3.720892Q0.69229281 3.5766459 0.76751173 3.4359212Q0.84273064 3.2951965 0.92476392 3.1583319Q1.0067973 3.0214677 1.0954474 2.8887932Q1.1840975 2.7561188 1.2791508 2.6279542Q1.3742042 2.4997897 1.4754319 2.3764436Q1.5766594 2.2530973 1.6838175 2.1348667Q1.7909756 2.0166361 1.9038059 1.9038059Q2.0166361 1.7909756 2.1348667 1.6838176Q2.2530971 1.5766594 2.3764434 1.4754319Q2.4997895 1.3742042 2.627954 1.2791508Q2.7561188 1.1840975 2.888793 1.0954474Q3.0214672 1.0067973 3.1583316 0.92476398Q3.2951961 0.84273064 3.435921 0.76751179Q3.5766454 0.69229287 3.7208915 0.62406957Q3.8651373 0.55584627 4.012557 0.49478298Q4.159977 0.43371972 4.3102155 0.37996355Q4.460454 0.32620737 4.6131492 0.2798878Q4.7658443 0.23356822 4.9206285 0.19479683Q5.0754128 0.15602545 5.2319126 0.12489566Q5.388413 0.093765877 5.5462523 0.070352674Q5.7040911 0.046939481 5.8628888 0.031299274Q6.0216866 0.015659068 6.1810598 0.0078295339Q6.3404341 0 6.5 0Q6.6595659 0 6.8189397 0.0078295339Q6.9783139 0.015659068 7.1371117 0.031299274Q7.2959089 0.046939481 7.4537482 0.070352674Q7.6115866 0.093765877 7.7680864 0.12489566Q7.9245863 0.15602545 8.0793705 0.19479683Q8.2341547 0.23356822 8.3868504 0.2798878Q8.5395451 0.32620737 8.6897831 0.37996355Q8.8400211 0.43371972 8.9874411 0.49478298Q9.134861 0.55584627 9.2791071 0.62406957Q9.4233532 0.69229281 9.5640783 0.76751173Q9.7048025 0.84273064 9.8416672 0.92476392Q9.9785309 1.0067973 10.111206 1.0954474Q10.24388 1.1840975 10.372046 1.2791508Q10.50021 1.3742042 10.623556 1.4754319Q10.746902 1.5766594 10.865132 1.6838175Q10.983363 1.7909756 11.096193 1.9038059Q11.209023 2.0166361 11.316182 2.1348667Q11.42334 2.2530971 11.524569 2.3764434Q11.625795 2.4997895 11.720848 2.627954Q11.815901 2.7561188 11.904552 2.888793Q11.993201 3.0214672 12.075235 3.1583316Q12.157269 3.2951961 12.232488 3.435921Q12.307707 3.5766454 12.37593 3.7208915Q12.444153 3.8651373 12.505216 4.012557Q12.566278 4.159977 12.620035 4.3102155Q12.673792 4.460454 12.720112 4.6131492Q12.766432 4.7658443 12.805202 4.9206285Q12.843973 5.0754128 12.875103 5.2319126Q12.906233 5.388413 12.929646 5.5462523Q12.95306 5.7040911 12.968701 5.8628888Q12.984342 6.0216866 12.99217 6.1810598Q13 6.3404341 13 6.5Z"/>
	<path fill="#838383" transform="translate(796 333)" d="M11 5.5Q11 5.6350174 10.993375 5.7698717Q10.98675 5.904727 10.973516 6.039094Q10.960281 6.173461 10.940471 6.3070173Q10.920658 6.4405727 10.894318 6.5729961Q10.867977 6.7054195 10.835172 6.8363905Q10.802365 6.9673615 10.763172 7.0965648Q10.723978 7.2257681 10.678492 7.3528929Q10.633005 7.4800177 10.581336 7.6047573Q10.529667 7.729497 10.47194 7.8515511Q10.414213 7.9736061 10.350567 8.0926809Q10.28692 8.2117558 10.217506 8.3275633Q10.148094 8.4433708 10.073082 8.5556345Q9.9980698 8.6678972 9.9176407 8.7763443Q9.8372097 8.8847914 9.7515564 8.9891615Q9.6659021 9.0935307 9.5752296 9.193572Q9.4845581 9.2936134 9.3890867 9.3890858Q9.2936153 9.4845581 9.193573 9.5752296Q9.0935326 9.6659021 8.9891624 9.7515564Q8.8847923 9.8372097 8.7763443 9.9176397Q8.6678982 9.9980698 8.5556355 10.073082Q8.4433727 10.148094 8.3275642 10.217506Q8.2117558 10.286919 8.0926819 10.350566Q7.9736071 10.414212 7.851552 10.471939Q7.7294979 10.529667 7.6047578 10.581336Q7.4800181 10.633005 7.3528934 10.678492Q7.2257686 10.723978 7.0965652 10.763171Q6.9673615 10.802364 6.8363905 10.835172Q6.7054195 10.867977 6.5729961 10.894318Q6.4405727 10.920658 6.3070173 10.940471Q6.173461 10.960281 6.039094 10.973516Q5.904727 10.98675 5.7698722 10.993376Q5.6350174 11 5.5 11Q5.3649826 11 5.2301273 10.993375Q5.0952725 10.98675 4.9609056 10.973516Q4.8265381 10.960281 4.6929822 10.940471Q4.5594263 10.920658 4.4270029 10.894318Q4.29458 10.867977 4.163609 10.835172Q4.0326376 10.802365 3.9034343 10.763172Q3.7742305 10.723978 3.6471055 10.678492Q3.5199807 10.633005 3.3952408 10.581336Q3.2705009 10.529667 3.1484468 10.47194Q3.0263925 10.414213 2.9073179 10.350567Q2.7882431 10.28692 2.6724348 10.217506Q2.5566263 10.148094 2.4443636 10.073082Q2.3321006 9.9980698 2.2236536 9.9176407Q2.1152067 9.8372097 2.0108368 9.7515564Q1.9064668 9.6659021 1.8064256 9.5752296Q1.7063842 9.4845581 1.6109126 9.3890867Q1.5154408 9.2936153 1.4247687 9.193573Q1.3340966 9.0935326 1.2484424 8.9891624Q1.1627882 8.8847923 1.0823584 8.7763443Q1.0019286 8.6678982 0.92691696 8.5556355Q0.85190535 8.4433727 0.78249252 8.3275642Q0.71307969 8.2117558 0.64943296 8.0926819Q0.58578616 7.9736071 0.52805877 7.851552Q0.47033137 7.7294979 0.41866249 7.6047578Q0.36699355 7.4800181 0.32150757 7.3528934Q0.2760216 7.2257686 0.23682812 7.0965652Q0.19763464 6.9673615 0.16482808 6.8363905Q0.13202152 6.7054195 0.10568094 6.5729961Q0.079340346 6.4405727 0.059529182 6.3070173Q0.039718017 6.173461 0.026484 6.039094Q0.013249979 5.904727 0.0066249897 5.7698722Q0 5.6350174 0 5.5Q0 5.3649826 0.0066249897 5.2301273Q0.013249979 5.0952725 0.026484 4.9609056Q0.039718017 4.8265381 0.059529182 4.6929822Q0.079340346 4.5594263 0.10568094 4.4270029Q0.13202152 4.29458 0.16482808 4.163609Q0.19763464 4.0326376 0.23682812 3.9034343Q0.2760216 3.7742305 0.32150757 3.6471055Q0.36699355 3.5199807 0.41866249 3.3952408Q0.47033137 3.2705009 0.52805877 3.1484468Q0.58578616 3.0263925 0.64943296 2.9073179Q0.71307969 2.7882431 0.78249252 2.6724348Q0.85190535 2.5566263 0.92691696 2.4443636Q1.0019286 2.3321006 1.0823584 2.2236536Q1.1627882 2.1152067 1.2484424 2.0108368Q1.3340966 1.9064668 1.4247687 1.8064256Q1.5154408 1.7063842 1.6109126 1.6109126Q1.7063842 1.5154408 1.8064256 1.4247687Q1.9064668 1.3340966 2.0108368 1.2484424Q2.1152067 1.1627882 2.2236538 1.0823584Q2.3321006 1.0019286 2.4443636 0.92691696Q2.5566263 0.85190535 2.6724348 0.78249252Q2.7882428 0.71307969 2.9073176 0.64943296Q3.0263925 0.58578616 3.1484466 0.52805877Q3.2705009 0.47033137 3.3952408 0.41866249Q3.5199807 0.36699355 3.6471057 0.32150757Q3.7742305 0.2760216 3.9034343 0.23682812Q4.0326376 0.19763464 4.163609 0.16482808Q4.29458 0.13202152 4.4270029 0.10568094Q4.5594263 0.079340346 4.6929822 0.059529182Q4.8265381 0.039718017 4.960906 0.026484Q5.095273 0.013249979 5.2301278 0.0066249897Q5.3649826 0 5.5 0Q5.6350174 0 5.7698717 0.0066249897Q5.904727 0.013249979 6.039094 0.026484Q6.173461 0.039718017 6.3070173 0.059529182Q6.4405727 0.079340346 6.5729961 0.10568094Q6.7054195 0.13202152 6.8363905 0.16482808Q6.9673615 0.19763464 7.0965648 0.23682812Q7.2257681 0.2760216 7.3528929 0.32150757Q7.4800177 0.36699355 7.6047573 0.41866249Q7.729497 0.47033137 7.8515511 0.52805877Q7.9736061 0.58578616 8.0926809 0.64943296Q8.2117558 0.71307969 8.3275633 0.78249252Q8.4433708 0.85190535 8.5556345 0.92691696Q8.6678972 1.0019286 8.7763443 1.0823584Q8.8847914 1.1627882 8.9891615 1.2484424Q9.0935307 1.3340966 9.193572 1.4247687Q9.2936134 1.5154408 9.3890858 1.6109126Q9.4845581 1.7063842 9.5752296 1.8064256Q9.6659021 1.9064668 9.7515564 2.0108368Q9.8372097 2.1152067 9.9176397 2.2236538Q9.9980698 2.3321006 10.073082 2.4443636Q10.148094 2.5566263 10.217506 2.6724348Q10.286919 2.7882428 10.350566 2.9073176Q10.414212 3.0263925 10.471939 3.1484466Q10.529667 3.2705009 10.581336 3.3952408Q10.633005 3.5199807 10.678492 3.6471057Q10.723978 3.7742305 10.763171 3.9034343Q10.802364 4.0326376 10.835172 4.163609Q10.867977 4.29458 10.894318 4.4270029Q10.920658 4.5594263 10.940471 4.6929822Q10.960281 4.8265381 10.973516 4.960906Q10.98675 5.095273 10.993376 5.2301278Q11 5.3649826 11 5.5Z"/>
	<path fill="#838383" transform="translate(772 33)" d="M11 5.5Q11 5.6350174 10.993375 5.7698717Q10.98675 5.904727 10.973516 6.039094Q10.960281 6.173461 10.940471 6.3070173Q10.920658 6.4405727 10.894318 6.5729961Q10.867977 6.7054195 10.835172 6.8363905Q10.802365 6.9673615 10.763172 7.0965648Q10.723978 7.2257681 10.678492 7.3528929Q10.633005 7.4800177 10.581336 7.6047573Q10.529667 7.729497 10.47194 7.8515511Q10.414213 7.9736061 10.350567 8.0926809Q10.28692 8.2117558 10.217506 8.3275633Q10.148094 8.4433708 10.073082 8.5556345Q9.9980698 8.6678972 9.9176407 8.7763443Q9.8372097 8.8847914 9.7515564 8.9891615Q9.6659021 9.0935307 9.5752296 9.193572Q9.4845581 9.2936134 9.3890867 9.3890858Q9.2936153 9.4845581 9.193573 9.5752296Q9.0935326 9.6659021 8.9891624 9.7515564Q8.8847923 9.8372097 8.7763443 9.9176397Q8.6678982 9.9980698 8.5556355 10.073082Q8.4433727 10.148094 8.3275642 10.217506Q8.2117558 10.286919 8.0926819 10.350566Q7.9736071 10.414212 7.851552 10.471939Q7.7294979 10.529667 7.6047578 10.581336Q7.4800181 10.633005 7.3528934 10.678492Q7.2257686 10.723978 7.0965652 10.763171Q6.9673615 10.802364 6.8363905 10.835172Q6.7054195 10.867977 6.5729961 10.894318Q6.4405727 10.920658 6.3070173 10.940471Q6.173461 10.960281 6.039094 10.973516Q5.904727 10.98675 5.7698722 10.993376Q5.6350174 11 5.5 11Q5.3649826 11 5.2301273 10.993375Q5.0952725 10.98675 4.9609056 10.973516Q4.8265381 10.960281 4.6929822 10.940471Q4.5594263 10.920658 4.4270029 10.894318Q4.29458 10.867977 4.163609 10.835172Q4.0326376 10.802365 3.9034343 10.763172Q3.7742305 10.723978 3.6471055 10.678492Q3.5199807 10.633005 3.3952408 10.581336Q3.2705009 10.529667 3.1484468 10.47194Q3.0263925 10.414213 2.9073179 10.350567Q2.7882431 10.28692 2.6724348 10.217506Q2.5566263 10.148094 2.4443636 10.073082Q2.3321006 9.9980698 2.2236536 9.9176407Q2.1152067 9.8372097 2.0108368 9.7515564Q1.9064668 9.6659021 1.8064256 9.5752296Q1.7063842 9.4845581 1.6109126 9.3890867Q1.5154408 9.2936153 1.4247687 9.193573Q1.3340966 9.0935326 1.2484424 8.9891624Q1.1627882 8.8847923 1.0823584 8.7763443Q1.0019286 8.6678982 0.92691696 8.5556355Q0.85190535 8.4433727 0.78249252 8.3275642Q0.71307969 8.2117558 0.64943296 8.0926819Q0.58578616 7.9736071 0.52805877 7.851552Q0.47033137 7.7294979 0.41866249 7.6047578Q0.36699355 7.4800181 0.32150757 7.3528934Q0.2760216 7.2257686 0.23682812 7.0965652Q0.19763464 6.9673615 0.16482808 6.8363905Q0.13202152 6.7054195 0.10568094 6.5729961Q0.079340346 6.4405727 0.059529182 6.3070173Q0.039718017 6.173461 0.026484 6.039094Q0.013249979 5.904727 0.0066249897 5.7698722Q0 5.6350174 0 5.5Q0 5.3649826 0.0066249897 5.2301273Q0.013249979 5.0952725 0.026484 4.9609056Q0.039718017 4.8265381 0.059529182 4.6929822Q0.079340346 4.5594263 0.10568094 4.4270029Q0.13202152 4.29458 0.16482808 4.163609Q0.19763464 4.0326376 0.23682812 3.9034343Q0.2760216 3.7742305 0.32150757 3.6471055Q0.36699355 3.5199807 0.41866249 3.3952408Q0.47033137 3.2705009 0.52805877 3.1484468Q0.58578616 3.0263925 0.64943296 2.9073179Q0.71307969 2.7882431 0.78249252 2.6724348Q0.85190535 2.5566263 0.92691696 2.4443636Q1.0019286 2.3321006 1.0823584 2.2236536Q1.1627882 2.1152067 1.2484424 2.0108368Q1.3340966 1.9064668 1.4247687 1.8064256Q1.5154408 1.7063842 1.6109126 1.6109126Q1.7063842 1.5154408 1.8064256 1.4247687Q1.9064668 1.3340966 2.0108368 1.2484424Q2.1152067 1.1627882 2.2236538 1.0823584Q2.3321006 1.0019286 2.4443636 0.92691696Q2.5566263 0.85190535 2.6724348 0.78249252Q2.7882428 0.71307969 2.9073176 0.64943296Q3.0263925 0.58578616 3.1484466 0.52805877Q3.2705009 0.47033137 3.3952408 0.41866249Q3.5199807 0.36699355 3.6471057 0.32150757Q3.7742305 0.2760216 3.9034343 0.23682812Q4.0326376 0.19763464 4.163609 0.16482808Q4.29458 0.13202152 4.4270029 0.10568094Q4.5594263 0.079340346 4.6929822 0.059529182Q4.8265381 0.039718017 4.960906 0.026484Q5.095273 0.013249979 5.2301278 0.0066249897Q5.3649826 0 5.5 0Q5.6350174 0 5.7698717 0.0066249897Q5.904727 0.013249979 6.039094 0.026484Q6.173461 0.039718017 6.3070173 0.059529182Q6.4405727 0.079340346 6.5729961 0.10568094Q6.7054195 0.13202152 6.8363905 0.16482808Q6.9673615 0.19763464 7.0965648 0.23682812Q7.2257681 0.2760216 7.3528929 0.32150757Q7.4800177 0.36699355 7.6047573 0.41866249Q7.729497 0.47033137 7.8515511 0.52805877Q7.9736061 0.58578616 8.0926809 0.64943296Q8.2117558 0.71307969 8.3275633 0.78249252Q8.4433708 0.85190535 8.5556345 0.92691696Q8.6678972 1.0019286 8.7763443 1.0823584Q8.8847914 1.1627882 8.9891615 1.2484424Q9.0935307 1.3340966 9.193572 1.4247687Q9.2936134 1.5154408 9.3890858 1.6109126Q9.4845581 1.7063842 9.5752296 1.8064256Q9.6659021 1.9064668 9.7515564 2.0108368Q9.8372097 2.1152067 9.9176397 2.2236538Q9.9980698 2.3321006 10.073082 2.4443636Q10.148094 2.5566263 10.217506 2.6724348Q10.286919 2.7882428 10.350566 2.9073176Q10.414212 3.0263925 10.471939 3.1484466Q10.529667 3.2705009 10.581336 3.3952408Q10.633005 3.5199807 10.678492 3.6471057Q10.723978 3.7742305 10.763171 3.9034343Q10.802364 4.0326376 10.835172 4.163609Q10.867977 4.29458 10.894318 4.4270029Q10.920658 4.5594263 10.940471 4.6929822Q10.960281 4.8265381 10.973516 4.960906Q10.98675 5.095273 10.993376 5.2301278Q11 5.3649826 11 5.5Z"/>
</svg>
